<?xml version="1.0" encoding="utf-8"?>
<!-- Generator: Adobe Illustrator 21.0.2, SVG Export Plug-In . SVG Version: 6.00 Build 0)  -->
<svg version="1.1" id="图层_1" xmlns="http://www.w3.org/2000/svg" xmlns:xlink="http://www.w3.org/1999/xlink" x="0px" y="0px"
	 viewBox="0 0 30 30" style="enable-background:new 0 0 30 30;" xml:space="preserve">
<style type="text/css">
	.st0{fill:#235A7C;}
</style>
<path class="st0" d="M23.3,12h-0.8V7.5c0-4.6-4.2-8.3-9.1-7.3c-3.5,0.7-5.9,4-5.9,7.6V12H6.7C4.7,12,3,13.7,3,15.7v10.5
	C3,28.3,4.7,30,6.7,30h16.5c2.1,0,3.8-1.7,3.8-3.8V15.7C27,13.7,25.3,12,23.3,12z M16.5,20.6v3.7h-3v-3.7c-1.1-0.6-1.8-1.9-1.4-3.4
	c0.3-1.1,1.2-1.9,2.3-2.2c1.9-0.4,3.7,1.1,3.7,2.9C18,19.1,17.4,20.1,16.5,20.6z M19.5,12h-9V7.7c0-2.2,1.5-4.3,3.7-4.6
	c2.9-0.5,5.3,1.7,5.3,4.4V12z"/>
</svg>
