<?xml version="1.0" encoding="utf-8"?>
<!-- Generator: Adobe Illustrator 21.0.2, SVG Export Plug-In . SVG Version: 6.00 Build 0)  -->
<svg version="1.1" id="图层_1" xmlns="http://www.w3.org/2000/svg" xmlns:xlink="http://www.w3.org/1999/xlink" x="0px" y="0px"
	 viewBox="0 0 30 30" style="enable-background:new 0 0 30 30;" xml:space="preserve">
<style type="text/css">
	.st0{fill:#235A7C;}
</style>
<path class="st0" d="M28.2,4.6c-0.1,0-7.5-0.8-12.6-4.5c-0.3-0.2-0.8-0.2-1.1,0C9.3,3.9,1.9,4.6,1.8,4.6C1.4,4.7,1,5.1,1,5.6
	c0,0.2,0,5,1.7,10.4c1,3.2,2.3,6,4,8.2c2.2,2.8,4.9,4.7,8,5.7c0.1,0,0.2,0,0.3,0c0.1,0,0.2,0,0.3,0c3.2-1,5.9-2.9,8-5.7
	c1.7-2.2,3.1-5,4-8.2C29,10.6,29,5.8,29,5.6C29,5.1,28.6,4.7,28.2,4.6z M21.2,11.5l-5.9,7.7c-0.2,0.2-0.4,0.3-0.7,0.4
	c0,0-0.1,0-0.1,0c-0.2,0-0.4-0.1-0.6-0.2l-3.4-2.9c-0.4-0.3-0.4-0.9-0.1-1.3c0.3-0.4,0.9-0.4,1.3-0.1l2.7,2.3l5.3-6.9
	C20,10,20.6,9.9,21,10.2C21.4,10.5,21.5,11.1,21.2,11.5z"/>
</svg>
